<svg xmlns="http://www.w3.org/2000/svg" xmlns:xlink="http://www.w3.org/1999/xlink" width="80" zoomAndPan="magnify" viewBox="0 0 60 60" height="80" preserveAspectRatio="xMidYMid meet" version="1.0"><defs><g/></defs><g fill="#6366f1" fill-opacity="1"><g transform="translate(0.743382, 35.124399)"><g><path d="M 11.109375 -8.484375 C 12.023438 -7.492188 12.484375 -6.28125 12.484375 -4.84375 C 12.484375 -3.40625 12.023438 -2.191406 11.109375 -1.203125 C 10.203125 -0.210938 9.050781 0.28125 7.65625 0.28125 C 6.375 0.28125 5.316406 -0.175781 4.484375 -1.09375 L 4.4375 -1.09375 L 4.4375 0 L 1.140625 0 L 1.140625 -16.265625 L 4.484375 -16.265625 L 4.484375 -8.765625 C 5.316406 -9.578125 6.375 -9.984375 7.65625 -9.984375 C 9.050781 -9.984375 10.203125 -9.484375 11.109375 -8.484375 Z M 8.296875 -3.203125 C 8.710938 -3.628906 8.921875 -4.175781 8.921875 -4.84375 C 8.921875 -5.507812 8.703125 -6.054688 8.265625 -6.484375 C 7.835938 -6.910156 7.300781 -7.125 6.65625 -7.125 C 6.019531 -7.125 5.484375 -6.910156 5.046875 -6.484375 C 4.617188 -6.054688 4.40625 -5.507812 4.40625 -4.84375 C 4.40625 -4.1875 4.613281 -3.644531 5.03125 -3.21875 C 5.457031 -2.789062 6 -2.578125 6.65625 -2.578125 C 7.332031 -2.578125 7.878906 -2.785156 8.296875 -3.203125 Z M 8.296875 -3.203125 "/></g></g></g><g fill="#6366f1" fill-opacity="1"><g transform="translate(11.880393, 35.124399)"><g><path d="M 1.796875 -1.203125 C 0.890625 -2.191406 0.4375 -3.40625 0.4375 -4.84375 C 0.4375 -6.28125 0.890625 -7.492188 1.796875 -8.484375 C 2.703125 -9.484375 3.851562 -9.984375 5.25 -9.984375 C 6.539062 -9.984375 7.601562 -9.578125 8.4375 -8.765625 L 8.4375 -9.703125 L 11.78125 -9.703125 L 11.78125 0 L 8.46875 0 L 8.46875 -1.09375 L 8.4375 -1.09375 C 7.601562 -0.175781 6.539062 0.28125 5.25 0.28125 C 3.851562 0.28125 2.703125 -0.210938 1.796875 -1.203125 Z M 4.640625 -6.484375 C 4.203125 -6.054688 3.984375 -5.507812 3.984375 -4.84375 C 3.984375 -4.175781 4.191406 -3.628906 4.609375 -3.203125 C 5.023438 -2.785156 5.578125 -2.578125 6.265625 -2.578125 C 6.910156 -2.578125 7.445312 -2.789062 7.875 -3.21875 C 8.300781 -3.644531 8.515625 -4.1875 8.515625 -4.84375 C 8.515625 -5.507812 8.296875 -6.054688 7.859375 -6.484375 C 7.421875 -6.910156 6.890625 -7.125 6.265625 -7.125 C 5.617188 -7.125 5.078125 -6.910156 4.640625 -6.484375 Z M 4.640625 -6.484375 "/></g></g></g><g fill="#6366f1" fill-opacity="1"><g transform="translate(23.017403, 35.124399)"><g><path d="M 1.140625 0 L 1.140625 -16.265625 L 4.484375 -16.265625 L 4.484375 0 Z M 1.140625 0 "/></g></g></g><g fill="#6366f1" fill-opacity="1"><g transform="translate(26.855455, 35.124399)"><g><path d="M 1.796875 -1.203125 C 0.890625 -2.191406 0.4375 -3.40625 0.4375 -4.84375 C 0.4375 -6.28125 0.890625 -7.492188 1.796875 -8.484375 C 2.703125 -9.484375 3.851562 -9.984375 5.25 -9.984375 C 6.539062 -9.984375 7.601562 -9.578125 8.4375 -8.765625 L 8.4375 -9.703125 L 11.78125 -9.703125 L 11.78125 0 L 8.46875 0 L 8.46875 -1.09375 L 8.4375 -1.09375 C 7.601562 -0.175781 6.539062 0.28125 5.25 0.28125 C 3.851562 0.28125 2.703125 -0.210938 1.796875 -1.203125 Z M 4.640625 -6.484375 C 4.203125 -6.054688 3.984375 -5.507812 3.984375 -4.84375 C 3.984375 -4.175781 4.191406 -3.628906 4.609375 -3.203125 C 5.023438 -2.785156 5.578125 -2.578125 6.265625 -2.578125 C 6.910156 -2.578125 7.445312 -2.789062 7.875 -3.21875 C 8.300781 -3.644531 8.515625 -4.1875 8.515625 -4.84375 C 8.515625 -5.507812 8.296875 -6.054688 7.859375 -6.484375 C 7.421875 -6.910156 6.890625 -7.125 6.265625 -7.125 C 5.617188 -7.125 5.078125 -6.910156 4.640625 -6.484375 Z M 4.640625 -6.484375 "/></g></g></g><g fill="#6366f1" fill-opacity="1"><g transform="translate(37.992465, 35.124399)"><g><path d="M 1.453125 -15.09375 C 1.847656 -15.488281 2.316406 -15.6875 2.859375 -15.6875 C 3.398438 -15.6875 3.863281 -15.488281 4.25 -15.09375 C 4.644531 -14.707031 4.84375 -14.242188 4.84375 -13.703125 C 4.84375 -13.160156 4.644531 -12.691406 4.25 -12.296875 C 3.863281 -11.910156 3.398438 -11.71875 2.859375 -11.71875 C 2.316406 -11.71875 1.847656 -11.910156 1.453125 -12.296875 C 1.066406 -12.691406 0.875 -13.160156 0.875 -13.703125 C 0.875 -14.242188 1.066406 -14.707031 1.453125 -15.09375 Z M 1.140625 -9.703125 L 1.140625 0 L 4.484375 0 L 4.484375 -9.703125 Z M 1.140625 -9.703125 "/></g></g></g><g fill="#6366f1" fill-opacity="1"><g transform="translate(41.925064, 35.124399)"><g><path d="M 2.046875 -1.15625 C 0.972656 -2.113281 0.4375 -3.34375 0.4375 -4.84375 C 0.4375 -6.34375 0.992188 -7.570312 2.109375 -8.53125 C 3.234375 -9.5 4.625 -9.984375 6.28125 -9.984375 C 7.90625 -9.984375 9.273438 -9.5 10.390625 -8.53125 C 11.503906 -7.5625 12.0625 -6.332031 12.0625 -4.84375 C 12.0625 -3.351562 11.515625 -2.125 10.421875 -1.15625 C 9.335938 -0.195312 7.957031 0.28125 6.28125 0.28125 C 4.539062 0.28125 3.128906 -0.195312 2.046875 -1.15625 Z M 4.640625 -6.484375 C 4.203125 -6.054688 3.984375 -5.507812 3.984375 -4.84375 C 3.984375 -4.175781 4.191406 -3.628906 4.609375 -3.203125 C 5.023438 -2.785156 5.578125 -2.578125 6.265625 -2.578125 C 6.910156 -2.578125 7.445312 -2.789062 7.875 -3.21875 C 8.300781 -3.644531 8.515625 -4.1875 8.515625 -4.84375 C 8.515625 -5.507812 8.296875 -6.054688 7.859375 -6.484375 C 7.421875 -6.910156 6.890625 -7.125 6.265625 -7.125 C 5.617188 -7.125 5.078125 -6.910156 4.640625 -6.484375 Z M 4.640625 -6.484375 "/></g></g></g><g fill="#6366f1" fill-opacity="1"><g transform="translate(52.646073, 35.124399)"><g><path d="M 3.296875 -4.046875 C 3.898438 -4.046875 4.410156 -3.832031 4.828125 -3.40625 C 5.253906 -2.988281 5.46875 -2.476562 5.46875 -1.875 C 5.46875 -1.28125 5.253906 -0.769531 4.828125 -0.34375 C 4.410156 0.0703125 3.898438 0.28125 3.296875 0.28125 C 2.703125 0.28125 2.191406 0.0703125 1.765625 -0.34375 C 1.347656 -0.769531 1.140625 -1.28125 1.140625 -1.875 C 1.140625 -2.476562 1.347656 -2.988281 1.765625 -3.40625 C 2.191406 -3.832031 2.703125 -4.046875 3.296875 -4.046875 Z M 3.296875 -4.046875 "/></g></g></g><g fill="#a5b4fc" fill-opacity="1"><g transform="translate(26.264461, 40.249115)"><g><path d="M 1.890625 -2.03125 C 1.941406 -2.03125 1.984375 -2.007812 2.015625 -1.96875 C 2.054688 -1.9375 2.078125 -1.894531 2.078125 -1.84375 L 2.078125 -0.1875 C 2.078125 -0.132812 2.054688 -0.0859375 2.015625 -0.046875 C 1.984375 -0.015625 1.941406 0 1.890625 0 C 1.835938 0 1.796875 -0.015625 1.765625 -0.046875 C 1.734375 -0.0859375 1.71875 -0.132812 1.71875 -0.1875 L 1.71875 -0.28125 C 1.644531 -0.195312 1.550781 -0.125 1.4375 -0.0625 C 1.320312 0 1.203125 0.03125 1.078125 0.03125 C 0.898438 0.03125 0.738281 -0.0078125 0.59375 -0.09375 C 0.457031 -0.1875 0.347656 -0.3125 0.265625 -0.46875 C 0.191406 -0.625 0.15625 -0.800781 0.15625 -1 C 0.15625 -1.195312 0.191406 -1.375 0.265625 -1.53125 C 0.347656 -1.695312 0.457031 -1.820312 0.59375 -1.90625 C 0.738281 -2 0.894531 -2.046875 1.0625 -2.046875 C 1.195312 -2.046875 1.320312 -2.015625 1.4375 -1.953125 C 1.550781 -1.898438 1.644531 -1.832031 1.71875 -1.75 L 1.71875 -1.84375 C 1.71875 -1.894531 1.734375 -1.9375 1.765625 -1.96875 C 1.796875 -2.007812 1.835938 -2.03125 1.890625 -2.03125 Z M 1.109375 -0.296875 C 1.234375 -0.296875 1.34375 -0.328125 1.4375 -0.390625 C 1.53125 -0.453125 1.601562 -0.535156 1.65625 -0.640625 C 1.707031 -0.742188 1.734375 -0.863281 1.734375 -1 C 1.734375 -1.132812 1.707031 -1.253906 1.65625 -1.359375 C 1.601562 -1.460938 1.53125 -1.546875 1.4375 -1.609375 C 1.34375 -1.671875 1.234375 -1.703125 1.109375 -1.703125 C 0.992188 -1.703125 0.890625 -1.671875 0.796875 -1.609375 C 0.703125 -1.554688 0.628906 -1.472656 0.578125 -1.359375 C 0.523438 -1.253906 0.5 -1.132812 0.5 -1 C 0.5 -0.863281 0.523438 -0.742188 0.578125 -0.640625 C 0.628906 -0.535156 0.703125 -0.453125 0.796875 -0.390625 C 0.890625 -0.328125 0.992188 -0.296875 1.109375 -0.296875 Z M 1.109375 -0.296875 "/></g></g></g><g fill="#a5b4fc" fill-opacity="1"><g transform="translate(28.828726, 40.249115)"><g><path d="M 1.265625 -2.03125 C 1.441406 -2.03125 1.597656 -1.984375 1.734375 -1.890625 C 1.878906 -1.804688 1.988281 -1.6875 2.0625 -1.53125 C 2.144531 -1.375 2.1875 -1.195312 2.1875 -1 C 2.1875 -0.800781 2.144531 -0.625 2.0625 -0.46875 C 1.988281 -0.3125 1.878906 -0.1875 1.734375 -0.09375 C 1.597656 -0.0078125 1.445312 0.03125 1.28125 0.03125 C 1.144531 0.03125 1.019531 0.00390625 0.90625 -0.046875 C 0.789062 -0.109375 0.703125 -0.179688 0.640625 -0.265625 L 0.640625 0.578125 C 0.640625 0.628906 0.617188 0.671875 0.578125 0.703125 C 0.546875 0.742188 0.503906 0.765625 0.453125 0.765625 C 0.398438 0.765625 0.351562 0.742188 0.3125 0.703125 C 0.28125 0.671875 0.265625 0.628906 0.265625 0.578125 L 0.265625 -1.8125 C 0.265625 -1.875 0.28125 -1.921875 0.3125 -1.953125 C 0.351562 -1.984375 0.398438 -2 0.453125 -2 C 0.503906 -2 0.546875 -1.984375 0.578125 -1.953125 C 0.617188 -1.921875 0.640625 -1.875 0.640625 -1.8125 L 0.640625 -1.703125 C 0.691406 -1.796875 0.773438 -1.875 0.890625 -1.9375 C 1.015625 -2 1.140625 -2.03125 1.265625 -2.03125 Z M 1.234375 -0.296875 C 1.347656 -0.296875 1.453125 -0.328125 1.546875 -0.390625 C 1.640625 -0.453125 1.710938 -0.535156 1.765625 -0.640625 C 1.816406 -0.742188 1.84375 -0.863281 1.84375 -1 C 1.84375 -1.132812 1.816406 -1.253906 1.765625 -1.359375 C 1.710938 -1.460938 1.640625 -1.546875 1.546875 -1.609375 C 1.453125 -1.671875 1.347656 -1.703125 1.234375 -1.703125 C 1.109375 -1.703125 1 -1.671875 0.90625 -1.609375 C 0.8125 -1.546875 0.738281 -1.460938 0.6875 -1.359375 C 0.632812 -1.253906 0.609375 -1.132812 0.609375 -1 C 0.609375 -0.863281 0.632812 -0.742188 0.6875 -0.640625 C 0.738281 -0.535156 0.8125 -0.453125 0.90625 -0.390625 C 1 -0.328125 1.109375 -0.296875 1.234375 -0.296875 Z M 1.234375 -0.296875 "/></g></g></g><g fill="#a5b4fc" fill-opacity="1"><g transform="translate(31.392992, 40.249115)"><g><path d="M 1.265625 -2.03125 C 1.441406 -2.03125 1.597656 -1.984375 1.734375 -1.890625 C 1.878906 -1.804688 1.988281 -1.6875 2.0625 -1.53125 C 2.144531 -1.375 2.1875 -1.195312 2.1875 -1 C 2.1875 -0.800781 2.144531 -0.625 2.0625 -0.46875 C 1.988281 -0.3125 1.878906 -0.1875 1.734375 -0.09375 C 1.597656 -0.0078125 1.445312 0.03125 1.28125 0.03125 C 1.144531 0.03125 1.019531 0.00390625 0.90625 -0.046875 C 0.789062 -0.109375 0.703125 -0.179688 0.640625 -0.265625 L 0.640625 0.578125 C 0.640625 0.628906 0.617188 0.671875 0.578125 0.703125 C 0.546875 0.742188 0.503906 0.765625 0.453125 0.765625 C 0.398438 0.765625 0.351562 0.742188 0.3125 0.703125 C 0.28125 0.671875 0.265625 0.628906 0.265625 0.578125 L 0.265625 -1.8125 C 0.265625 -1.875 0.28125 -1.921875 0.3125 -1.953125 C 0.351562 -1.984375 0.398438 -2 0.453125 -2 C 0.503906 -2 0.546875 -1.984375 0.578125 -1.953125 C 0.617188 -1.921875 0.640625 -1.875 0.640625 -1.8125 L 0.640625 -1.703125 C 0.691406 -1.796875 0.773438 -1.875 0.890625 -1.9375 C 1.015625 -2 1.140625 -2.03125 1.265625 -2.03125 Z M 1.234375 -0.296875 C 1.347656 -0.296875 1.453125 -0.328125 1.546875 -0.390625 C 1.640625 -0.453125 1.710938 -0.535156 1.765625 -0.640625 C 1.816406 -0.742188 1.84375 -0.863281 1.84375 -1 C 1.84375 -1.132812 1.816406 -1.253906 1.765625 -1.359375 C 1.710938 -1.460938 1.640625 -1.546875 1.546875 -1.609375 C 1.453125 -1.671875 1.347656 -1.703125 1.234375 -1.703125 C 1.109375 -1.703125 1 -1.671875 0.90625 -1.609375 C 0.8125 -1.546875 0.738281 -1.460938 0.6875 -1.359375 C 0.632812 -1.253906 0.609375 -1.132812 0.609375 -1 C 0.609375 -0.863281 0.632812 -0.742188 0.6875 -0.640625 C 0.738281 -0.535156 0.8125 -0.453125 0.90625 -0.390625 C 1 -0.328125 1.109375 -0.296875 1.234375 -0.296875 Z M 1.234375 -0.296875 "/></g></g></g></svg>