<svg xmlns="http://www.w3.org/2000/svg" xmlns:xlink="http://www.w3.org/1999/xlink" width="80" zoomAndPan="magnify" viewBox="0 0 60 60" height="80" preserveAspectRatio="xMidYMid meet" version="1.0"><defs><g/></defs><g fill="#6366f1" fill-opacity="1"><g transform="translate(0.0277501, 52.517274)"><g><path d="M 37.109375 -28.328125 C 40.140625 -25.003906 41.65625 -20.945312 41.65625 -16.15625 C 41.65625 -11.363281 40.140625 -7.3125 37.109375 -4 C 34.078125 -0.695312 30.226562 0.953125 25.5625 0.953125 C 21.269531 0.953125 17.734375 -0.582031 14.953125 -3.65625 L 14.828125 -3.65625 L 14.828125 0 L 3.78125 0 L 3.78125 -54.28125 L 14.953125 -54.28125 L 14.953125 -29.28125 C 17.734375 -31.976562 21.269531 -33.328125 25.5625 -33.328125 C 30.226562 -33.328125 34.078125 -31.660156 37.109375 -28.328125 Z M 27.703125 -10.6875 C 29.085938 -12.101562 29.78125 -13.925781 29.78125 -16.15625 C 29.78125 -18.382812 29.054688 -20.210938 27.609375 -21.640625 C 26.160156 -23.078125 24.363281 -23.796875 22.21875 -23.796875 C 20.113281 -23.796875 18.332031 -23.078125 16.875 -21.640625 C 15.425781 -20.210938 14.703125 -18.382812 14.703125 -16.15625 C 14.703125 -13.96875 15.40625 -12.15625 16.8125 -10.71875 C 18.226562 -9.289062 20.03125 -8.578125 22.21875 -8.578125 C 24.488281 -8.578125 26.316406 -9.28125 27.703125 -10.6875 Z M 27.703125 -10.6875 "/></g></g></g><g fill="#a5b4fc" fill-opacity="1"><g transform="translate(37.205822, 52.517274)"><g><path d="M 10.984375 -13.5 C 13.003906 -13.5 14.71875 -12.796875 16.125 -11.390625 C 17.53125 -9.984375 18.234375 -8.269531 18.234375 -6.25 C 18.234375 -4.269531 17.53125 -2.570312 16.125 -1.15625 C 14.71875 0.25 13.003906 0.953125 10.984375 0.953125 C 9.003906 0.953125 7.304688 0.25 5.890625 -1.15625 C 4.484375 -2.570312 3.78125 -4.269531 3.78125 -6.25 C 3.78125 -8.269531 4.484375 -9.984375 5.890625 -11.390625 C 7.304688 -12.796875 9.003906 -13.5 10.984375 -13.5 Z M 10.984375 -13.5 "/></g></g></g></svg>