<svg xmlns="http://www.w3.org/2000/svg" xmlns:xlink="http://www.w3.org/1999/xlink" width="80" zoomAndPan="magnify" viewBox="0 0 60 60" height="80" preserveAspectRatio="xMidYMid meet" version="1.0"><defs><g/></defs><g fill="#6366f1" fill-opacity="1"><g transform="translate(0.743382, 35.124399)"><g><path d="M 11.109375 -8.484375 C 12.023438 -7.492188 12.484375 -6.28125 12.484375 -4.84375 C 12.484375 -3.40625 12.023438 -2.191406 11.109375 -1.203125 C 10.203125 -0.210938 9.050781 0.28125 7.65625 0.28125 C 6.375 0.28125 5.316406 -0.175781 4.484375 -1.09375 L 4.4375 -1.09375 L 4.4375 0 L 1.140625 0 L 1.140625 -16.265625 L 4.484375 -16.265625 L 4.484375 -8.765625 C 5.316406 -9.578125 6.375 -9.984375 7.65625 -9.984375 C 9.050781 -9.984375 10.203125 -9.484375 11.109375 -8.484375 Z M 8.296875 -3.203125 C 8.710938 -3.628906 8.921875 -4.175781 8.921875 -4.84375 C 8.921875 -5.507812 8.703125 -6.054688 8.265625 -6.484375 C 7.835938 -6.910156 7.300781 -7.125 6.65625 -7.125 C 6.019531 -7.125 5.484375 -6.910156 5.046875 -6.484375 C 4.617188 -6.054688 4.40625 -5.507812 4.40625 -4.84375 C 4.40625 -4.1875 4.613281 -3.644531 5.03125 -3.21875 C 5.457031 -2.789062 6 -2.578125 6.65625 -2.578125 C 7.332031 -2.578125 7.878906 -2.785156 8.296875 -3.203125 Z M 8.296875 -3.203125 "/></g></g></g><g fill="#6366f1" fill-opacity="1"><g transform="translate(11.880393, 35.124399)"><g><path d="M 1.796875 -1.203125 C 0.890625 -2.191406 0.4375 -3.40625 0.4375 -4.84375 C 0.4375 -6.28125 0.890625 -7.492188 1.796875 -8.484375 C 2.703125 -9.484375 3.851562 -9.984375 5.25 -9.984375 C 6.539062 -9.984375 7.601562 -9.578125 8.4375 -8.765625 L 8.4375 -9.703125 L 11.78125 -9.703125 L 11.78125 0 L 8.46875 0 L 8.46875 -1.09375 L 8.4375 -1.09375 C 7.601562 -0.175781 6.539062 0.28125 5.25 0.28125 C 3.851562 0.28125 2.703125 -0.210938 1.796875 -1.203125 Z M 4.640625 -6.484375 C 4.203125 -6.054688 3.984375 -5.507812 3.984375 -4.84375 C 3.984375 -4.175781 4.191406 -3.628906 4.609375 -3.203125 C 5.023438 -2.785156 5.578125 -2.578125 6.265625 -2.578125 C 6.910156 -2.578125 7.445312 -2.789062 7.875 -3.21875 C 8.300781 -3.644531 8.515625 -4.1875 8.515625 -4.84375 C 8.515625 -5.507812 8.296875 -6.054688 7.859375 -6.484375 C 7.421875 -6.910156 6.890625 -7.125 6.265625 -7.125 C 5.617188 -7.125 5.078125 -6.910156 4.640625 -6.484375 Z M 4.640625 -6.484375 "/></g></g></g><g fill="#6366f1" fill-opacity="1"><g transform="translate(23.017403, 35.124399)"><g><path d="M 1.140625 0 L 1.140625 -16.265625 L 4.484375 -16.265625 L 4.484375 0 Z M 1.140625 0 "/></g></g></g><g fill="#6366f1" fill-opacity="1"><g transform="translate(26.855455, 35.124399)"><g><path d="M 1.796875 -1.203125 C 0.890625 -2.191406 0.4375 -3.40625 0.4375 -4.84375 C 0.4375 -6.28125 0.890625 -7.492188 1.796875 -8.484375 C 2.703125 -9.484375 3.851562 -9.984375 5.25 -9.984375 C 6.539062 -9.984375 7.601562 -9.578125 8.4375 -8.765625 L 8.4375 -9.703125 L 11.78125 -9.703125 L 11.78125 0 L 8.46875 0 L 8.46875 -1.09375 L 8.4375 -1.09375 C 7.601562 -0.175781 6.539062 0.28125 5.25 0.28125 C 3.851562 0.28125 2.703125 -0.210938 1.796875 -1.203125 Z M 4.640625 -6.484375 C 4.203125 -6.054688 3.984375 -5.507812 3.984375 -4.84375 C 3.984375 -4.175781 4.191406 -3.628906 4.609375 -3.203125 C 5.023438 -2.785156 5.578125 -2.578125 6.265625 -2.578125 C 6.910156 -2.578125 7.445312 -2.789062 7.875 -3.21875 C 8.300781 -3.644531 8.515625 -4.1875 8.515625 -4.84375 C 8.515625 -5.507812 8.296875 -6.054688 7.859375 -6.484375 C 7.421875 -6.910156 6.890625 -7.125 6.265625 -7.125 C 5.617188 -7.125 5.078125 -6.910156 4.640625 -6.484375 Z M 4.640625 -6.484375 "/></g></g></g><g fill="#6366f1" fill-opacity="1"><g transform="translate(37.992465, 35.124399)"><g><path d="M 1.453125 -15.09375 C 1.847656 -15.488281 2.316406 -15.6875 2.859375 -15.6875 C 3.398438 -15.6875 3.863281 -15.488281 4.25 -15.09375 C 4.644531 -14.707031 4.84375 -14.242188 4.84375 -13.703125 C 4.84375 -13.160156 4.644531 -12.691406 4.25 -12.296875 C 3.863281 -11.910156 3.398438 -11.71875 2.859375 -11.71875 C 2.316406 -11.71875 1.847656 -11.910156 1.453125 -12.296875 C 1.066406 -12.691406 0.875 -13.160156 0.875 -13.703125 C 0.875 -14.242188 1.066406 -14.707031 1.453125 -15.09375 Z M 1.140625 -9.703125 L 1.140625 0 L 4.484375 0 L 4.484375 -9.703125 Z M 1.140625 -9.703125 "/></g></g></g><g fill="#6366f1" fill-opacity="1"><g transform="translate(41.925064, 35.124399)"><g><path d="M 2.046875 -1.15625 C 0.972656 -2.113281 0.4375 -3.34375 0.4375 -4.84375 C 0.4375 -6.34375 0.992188 -7.570312 2.109375 -8.53125 C 3.234375 -9.5 4.625 -9.984375 6.28125 -9.984375 C 7.90625 -9.984375 9.273438 -9.5 10.390625 -8.53125 C 11.503906 -7.5625 12.0625 -6.332031 12.0625 -4.84375 C 12.0625 -3.351562 11.515625 -2.125 10.421875 -1.15625 C 9.335938 -0.195312 7.957031 0.28125 6.28125 0.28125 C 4.539062 0.28125 3.128906 -0.195312 2.046875 -1.15625 Z M 4.640625 -6.484375 C 4.203125 -6.054688 3.984375 -5.507812 3.984375 -4.84375 C 3.984375 -4.175781 4.191406 -3.628906 4.609375 -3.203125 C 5.023438 -2.785156 5.578125 -2.578125 6.265625 -2.578125 C 6.910156 -2.578125 7.445312 -2.789062 7.875 -3.21875 C 8.300781 -3.644531 8.515625 -4.1875 8.515625 -4.84375 C 8.515625 -5.507812 8.296875 -6.054688 7.859375 -6.484375 C 7.421875 -6.910156 6.890625 -7.125 6.265625 -7.125 C 5.617188 -7.125 5.078125 -6.910156 4.640625 -6.484375 Z M 4.640625 -6.484375 "/></g></g></g><g fill="#6366f1" fill-opacity="1"><g transform="translate(52.646073, 35.124399)"><g><path d="M 3.296875 -4.046875 C 3.898438 -4.046875 4.410156 -3.832031 4.828125 -3.40625 C 5.253906 -2.988281 5.46875 -2.476562 5.46875 -1.875 C 5.46875 -1.28125 5.253906 -0.769531 4.828125 -0.34375 C 4.410156 0.0703125 3.898438 0.28125 3.296875 0.28125 C 2.703125 0.28125 2.191406 0.0703125 1.765625 -0.34375 C 1.347656 -0.769531 1.140625 -1.28125 1.140625 -1.875 C 1.140625 -2.476562 1.347656 -2.988281 1.765625 -3.40625 C 2.191406 -3.832031 2.703125 -4.046875 3.296875 -4.046875 Z M 3.296875 -4.046875 "/></g></g></g><g fill="#a5b4fc" fill-opacity="1"><g transform="translate(21.355763, 44.677865)"><g><path d="M 4.375 -4.671875 C 4.5 -4.671875 4.597656 -4.628906 4.671875 -4.546875 C 4.753906 -4.472656 4.796875 -4.375 4.796875 -4.25 L 4.796875 -0.421875 C 4.796875 -0.304688 4.753906 -0.207031 4.671875 -0.125 C 4.597656 -0.0390625 4.5 0 4.375 0 C 4.25 0 4.144531 -0.0351562 4.0625 -0.109375 C 3.988281 -0.191406 3.953125 -0.296875 3.953125 -0.421875 L 3.953125 -0.65625 C 3.804688 -0.445312 3.597656 -0.269531 3.328125 -0.125 C 3.066406 0.0195312 2.78125 0.09375 2.46875 0.09375 C 2.070312 0.09375 1.710938 -0.0078125 1.390625 -0.21875 C 1.066406 -0.425781 0.8125 -0.710938 0.625 -1.078125 C 0.4375 -1.441406 0.34375 -1.851562 0.34375 -2.3125 C 0.34375 -2.769531 0.4375 -3.179688 0.625 -3.546875 C 0.8125 -3.921875 1.066406 -4.207031 1.390625 -4.40625 C 1.710938 -4.613281 2.066406 -4.71875 2.453125 -4.71875 C 2.765625 -4.71875 3.050781 -4.648438 3.3125 -4.515625 C 3.582031 -4.390625 3.796875 -4.226562 3.953125 -4.03125 L 3.953125 -4.25 C 3.953125 -4.375 3.988281 -4.472656 4.0625 -4.546875 C 4.144531 -4.628906 4.25 -4.671875 4.375 -4.671875 Z M 2.578125 -0.6875 C 2.847656 -0.6875 3.085938 -0.753906 3.296875 -0.890625 C 3.515625 -1.035156 3.679688 -1.226562 3.796875 -1.46875 C 3.921875 -1.71875 3.984375 -2 3.984375 -2.3125 C 3.984375 -2.625 3.921875 -2.898438 3.796875 -3.140625 C 3.679688 -3.390625 3.515625 -3.585938 3.296875 -3.734375 C 3.085938 -3.878906 2.847656 -3.953125 2.578125 -3.953125 C 2.296875 -3.953125 2.046875 -3.878906 1.828125 -3.734375 C 1.617188 -3.597656 1.453125 -3.40625 1.328125 -3.15625 C 1.210938 -2.90625 1.15625 -2.625 1.15625 -2.3125 C 1.15625 -2 1.210938 -1.71875 1.328125 -1.46875 C 1.453125 -1.226562 1.617188 -1.035156 1.828125 -0.890625 C 2.046875 -0.753906 2.296875 -0.6875 2.578125 -0.6875 Z M 2.578125 -0.6875 "/></g></g></g><g fill="#a5b4fc" fill-opacity="1"><g transform="translate(27.291502, 44.677865)"><g><path d="M 2.9375 -4.703125 C 3.34375 -4.703125 3.707031 -4.597656 4.03125 -4.390625 C 4.351562 -4.191406 4.601562 -3.910156 4.78125 -3.546875 C 4.96875 -3.179688 5.0625 -2.769531 5.0625 -2.3125 C 5.0625 -1.851562 4.96875 -1.441406 4.78125 -1.078125 C 4.601562 -0.710938 4.351562 -0.425781 4.03125 -0.21875 C 3.707031 -0.0195312 3.351562 0.078125 2.96875 0.078125 C 2.65625 0.078125 2.363281 0.0078125 2.09375 -0.125 C 1.832031 -0.257812 1.625 -0.421875 1.46875 -0.609375 L 1.46875 1.34375 C 1.46875 1.457031 1.425781 1.554688 1.34375 1.640625 C 1.257812 1.722656 1.160156 1.765625 1.046875 1.765625 C 0.921875 1.765625 0.816406 1.722656 0.734375 1.640625 C 0.660156 1.566406 0.625 1.46875 0.625 1.34375 L 0.625 -4.203125 C 0.625 -4.328125 0.660156 -4.429688 0.734375 -4.515625 C 0.816406 -4.597656 0.921875 -4.640625 1.046875 -4.640625 C 1.160156 -4.640625 1.257812 -4.597656 1.34375 -4.515625 C 1.425781 -4.429688 1.46875 -4.328125 1.46875 -4.203125 L 1.46875 -3.953125 C 1.601562 -4.148438 1.804688 -4.320312 2.078125 -4.46875 C 2.347656 -4.625 2.632812 -4.703125 2.9375 -4.703125 Z M 2.84375 -0.703125 C 3.113281 -0.703125 3.359375 -0.769531 3.578125 -0.90625 C 3.796875 -1.050781 3.960938 -1.242188 4.078125 -1.484375 C 4.203125 -1.722656 4.265625 -2 4.265625 -2.3125 C 4.265625 -2.613281 4.203125 -2.882812 4.078125 -3.125 C 3.960938 -3.375 3.796875 -3.566406 3.578125 -3.703125 C 3.359375 -3.847656 3.113281 -3.921875 2.84375 -3.921875 C 2.570312 -3.921875 2.328125 -3.847656 2.109375 -3.703125 C 1.890625 -3.566406 1.71875 -3.375 1.59375 -3.125 C 1.476562 -2.882812 1.421875 -2.613281 1.421875 -2.3125 C 1.421875 -2 1.476562 -1.71875 1.59375 -1.46875 C 1.71875 -1.226562 1.890625 -1.039062 2.109375 -0.90625 C 2.328125 -0.769531 2.570312 -0.703125 2.84375 -0.703125 Z M 2.84375 -0.703125 "/></g></g></g><g fill="#a5b4fc" fill-opacity="1"><g transform="translate(33.227241, 44.677865)"><g><path d="M 2.9375 -4.703125 C 3.34375 -4.703125 3.707031 -4.597656 4.03125 -4.390625 C 4.351562 -4.191406 4.601562 -3.910156 4.78125 -3.546875 C 4.96875 -3.179688 5.0625 -2.769531 5.0625 -2.3125 C 5.0625 -1.851562 4.96875 -1.441406 4.78125 -1.078125 C 4.601562 -0.710938 4.351562 -0.425781 4.03125 -0.21875 C 3.707031 -0.0195312 3.351562 0.078125 2.96875 0.078125 C 2.65625 0.078125 2.363281 0.0078125 2.09375 -0.125 C 1.832031 -0.257812 1.625 -0.421875 1.46875 -0.609375 L 1.46875 1.34375 C 1.46875 1.457031 1.425781 1.554688 1.34375 1.640625 C 1.257812 1.722656 1.160156 1.765625 1.046875 1.765625 C 0.921875 1.765625 0.816406 1.722656 0.734375 1.640625 C 0.660156 1.566406 0.625 1.46875 0.625 1.34375 L 0.625 -4.203125 C 0.625 -4.328125 0.660156 -4.429688 0.734375 -4.515625 C 0.816406 -4.597656 0.921875 -4.640625 1.046875 -4.640625 C 1.160156 -4.640625 1.257812 -4.597656 1.34375 -4.515625 C 1.425781 -4.429688 1.46875 -4.328125 1.46875 -4.203125 L 1.46875 -3.953125 C 1.601562 -4.148438 1.804688 -4.320312 2.078125 -4.46875 C 2.347656 -4.625 2.632812 -4.703125 2.9375 -4.703125 Z M 2.84375 -0.703125 C 3.113281 -0.703125 3.359375 -0.769531 3.578125 -0.90625 C 3.796875 -1.050781 3.960938 -1.242188 4.078125 -1.484375 C 4.203125 -1.722656 4.265625 -2 4.265625 -2.3125 C 4.265625 -2.613281 4.203125 -2.882812 4.078125 -3.125 C 3.960938 -3.375 3.796875 -3.566406 3.578125 -3.703125 C 3.359375 -3.847656 3.113281 -3.921875 2.84375 -3.921875 C 2.570312 -3.921875 2.328125 -3.847656 2.109375 -3.703125 C 1.890625 -3.566406 1.71875 -3.375 1.59375 -3.125 C 1.476562 -2.882812 1.421875 -2.613281 1.421875 -2.3125 C 1.421875 -2 1.476562 -1.71875 1.59375 -1.46875 C 1.71875 -1.226562 1.890625 -1.039062 2.109375 -0.90625 C 2.328125 -0.769531 2.570312 -0.703125 2.84375 -0.703125 Z M 2.84375 -0.703125 "/></g></g></g></svg>